HIERARCHY
ROOT SpineBase
{
  OFFSET 0.000000 0.000000 0.000000
  CHANNELS 6 Xposition Yposition Zposition Zrotation Xrotation Yrotation
  JOINT SpineMid
  {
    OFFSET 0.000000 25.122937 0.000000
    CHANNELS 3 Zrotation Xrotation Yrotation
    JOINT SpineShoulder
    {
      OFFSET -0.002326 18.884879 -0.913633
      CHANNELS 3 Zrotation Xrotation Yrotation
      JOINT Neck
      {
        OFFSET -0.004373 6.344259 -0.613120
        CHANNELS 3 Zrotation Xrotation Yrotation
        JOINT Head
        {
          OFFSET 3.421728 11.455887 4.078859
          CHANNELS 3 Zrotation Xrotation Yrotation
          End Site
          {
            OFFSET 0 0 0
          }
        }
      }
      JOINT ShoulderLeft
      {
        OFFSET -12.071208 -2.102603 -8.567493
        CHANNELS 3 Zrotation Xrotation Yrotation
        JOINT ElbowLeft
        {
          OFFSET -18.675239 -10.021178 1.235390
          CHANNELS 3 Zrotation Xrotation Yrotation
          JOINT WristLeft
          {
            OFFSET 5.727726 -19.926288 -15.782412
            CHANNELS 3 Zrotation Xrotation Yrotation
            JOINT HandLeft
            {
              OFFSET 3.413133 -4.176282 -4.405357
              CHANNELS 3 Zrotation Xrotation Yrotation
              JOINT HandTipLeft
              {
                OFFSET 4.980115 -4.416298 -4.221333
                CHANNELS 3 Zrotation Xrotation Yrotation
                End Site
                {
                  OFFSET 0 0 0
                }
              }
              JOINT ThumbLeft
              {
                OFFSET -2.874809 -4.019845 2.929873
                CHANNELS 3 Zrotation Xrotation Yrotation
                End Site
                {
                  OFFSET 0 0 0
                }
              }
            }
          }
        }
      }
      JOINT ShoulderRight
      {
        OFFSET 12.413240 -3.996422 3.057003
        CHANNELS 3 Zrotation Xrotation Yrotation
        JOINT ElbowRight
        {
          OFFSET 3.820845 -24.521843 8.961538
          CHANNELS 3 Zrotation Xrotation Yrotation
          JOINT WristRight
          {
            OFFSET -1.982546 -12.231241 -18.557885
            CHANNELS 3 Zrotation Xrotation Yrotation
            JOINT HandRight
            {
              OFFSET -0.621930 -1.609705 -5.622487
              CHANNELS 3 Zrotation Xrotation Yrotation
              JOINT HandTipRight
              {
                OFFSET 0.739879 -5.543258 -6.549273
                CHANNELS 3 Zrotation Xrotation Yrotation
                End Site
                {
                  OFFSET 0 0 0
                }
              }
              JOINT ThumbRight
              {
                OFFSET 1.985062 1.837131 -3.251582
                CHANNELS 3 Zrotation Xrotation Yrotation
                End Site
                {
                  OFFSET 0 0 0
                }
              }
            }
          }
        }
      }
    }
  }
  JOINT HipLeft
  {
    OFFSET -6.221385 1.193908 -4.693075
    CHANNELS 3 Zrotation Xrotation Yrotation
    JOINT KneeLeft
    {
      OFFSET 13.523171 -0.810496 -27.382873
      CHANNELS 3 Zrotation Xrotation Yrotation
      JOINT AnkleLeft
      {
        OFFSET 2.414369 -36.430246 -0.690359
        CHANNELS 3 Zrotation Xrotation Yrotation
        JOINT FootLeft
        {
          OFFSET 7.638726 -3.040610 -0.596555
          CHANNELS 3 Zrotation Xrotation Yrotation
          End Site
          {
            OFFSET 0 0 0
          }
        }
      }
    }
  }
  JOINT HipRight
  {
    OFFSET 5.771923 1.440027 -1.321095
    CHANNELS 3 Zrotation Xrotation Yrotation
    JOINT KneeRight
    {
      OFFSET 22.149122 -6.971744 -17.839818
      CHANNELS 3 Zrotation Xrotation Yrotation
      JOINT AnkleRight
      {
        OFFSET -6.461809 -32.065258 -3.754547
        CHANNELS 3 Zrotation Xrotation Yrotation
        JOINT FootRight
        {
          OFFSET -3.570257 -1.649426 -10.844992
          CHANNELS 3 Zrotation Xrotation Yrotation
          End Site
          {
            OFFSET 0 0 0
          }
        }
      }
    }
  }
}
MOTION
Frames: 11
Frame Time: 0.033333
24.363586 43.317174 362.697258 3.478669 -5.547690 -16.084879 -0.036364 1.345817 16.381548 0.279628 0.394044 0.183499 3.914652 -0.737433 -2.022468 0.000000 0.000000 0.000000 7.277444 0.308402 8.947576 29.280017 58.264294 -28.976605 -6.969203 -11.607540 14.305307 -19.237505 -29.097328 -14.370419 0.000000 0.000000 0.000000 0.000000 0.000000 0.000000 -4.882016 5.615271 -0.214815 15.043854 -2.911047 -21.390819 -2.424182 -10.219349 -12.191236 1.584019 8.496693 16.442609 0.000000 0.000000 0.000000 0.000000 0.000000 0.000000 -5.424559 1.277899 18.141153 6.024762 -2.648536 -2.153097 -31.612790 13.259229 65.296894 0.000000 0.000000 0.000000 -3.825531 5.503067 15.505927 -0.858439 0.281378 0.556288 -3.473764 2.256816 10.087088 0.000000 0.000000 0.000000
24.096492 43.281592 362.688838 3.395652 -5.099838 -15.579703 0.032763 1.266671 15.859487 0.240108 0.372960 0.180879 4.443266 -1.482632 -2.003645 0.000000 0.000000 0.000000 8.508744 -0.504733 10.523588 29.216135 59.260722 -30.423954 -6.869586 -11.643348 14.462226 -18.672361 -29.587749 -15.419299 0.000000 0.000000 0.000000 0.000000 0.000000 0.000000 -7.407476 12.655201 0.408694 20.195519 -13.993898 -22.623760 -4.422464 -9.650142 -10.232237 2.125907 7.355469 17.425322 0.000000 0.000000 0.000000 0.000000 0.000000 0.000000 -5.184747 1.080997 17.092645 6.451792 -2.671551 -1.646730 -31.279853 14.350685 67.462920 0.000000 0.000000 0.000000 -3.939730 4.568078 14.873202 -0.043367 0.916854 0.607063 -4.950872 4.266540 11.115880 0.000000 0.000000 0.000000
23.808757 43.229654 362.595692 3.240442 -4.646146 -14.883706 0.128159 1.292602 15.138908 0.245999 0.397772 0.178598 5.000102 -2.380195 -1.977516 0.000000 0.000000 0.000000 9.234568 -1.207337 11.408999 28.734744 59.439334 -30.886706 -6.880863 -11.651440 14.478298 -18.074904 -29.596613 -15.725936 0.000000 0.000000 0.000000 0.000000 0.000000 0.000000 -10.912230 21.697201 1.747887 28.906971 -29.091787 -23.366339 -10.629603 -2.365271 -4.868941 7.770845 3.136253 13.918025 0.000000 0.000000 0.000000 0.000000 0.000000 0.000000 -4.871244 0.919887 15.791703 6.377751 -2.355085 -1.063794 -29.026686 14.762287 63.419910 0.000000 0.000000 0.000000 -3.564682 4.100398 13.696182 0.055840 0.752277 1.091151 -5.605334 6.031679 10.652345 0.000000 0.000000 0.000000
23.530191 43.168490 362.496391 3.057866 -4.192755 -14.267605 0.224471 1.314681 14.498139 0.233489 0.404563 0.174585 5.584519 -3.180279 -1.960893 0.000000 0.000000 0.000000 8.663759 -1.729973 11.420484 28.815135 58.540615 -30.467823 -7.015851 -11.623617 14.328624 -17.572204 -28.954157 -14.992492 0.000000 0.000000 0.000000 0.000000 0.000000 0.000000 -15.104778 31.362912 4.032406 40.367020 -45.638151 -18.081902 -14.148503 -0.289270 -2.505590 7.958644 6.939358 12.737803 0.000000 0.000000 0.000000 0.000000 0.000000 0.000000 -4.529576 0.781825 14.685391 5.348602 -1.802912 -0.563844 -26.198100 13.758833 56.527242 0.000000 0.000000 0.000000 -3.366435 3.482447 12.846734 0.295327 0.254445 1.442962 -5.539708 7.528004 8.844896 0.000000 0.000000 0.000000
23.242831 43.115074 362.430455 2.838708 -3.766732 -13.706420 0.279064 1.267024 13.913500 0.190701 0.380027 0.164957 6.309081 -3.774366 -1.980819 0.000000 0.000000 0.000000 6.943552 -1.777676 10.105979 29.369249 56.519026 -28.975732 -7.267208 -11.556373 14.010054 -17.458816 -27.721895 -13.171373 0.000000 0.000000 0.000000 0.000000 0.000000 0.000000 -19.475417 40.006480 7.160322 60.847784 -61.368136 -3.212393 -20.182387 3.763597 7.955089 9.383768 3.857723 8.689086 0.000000 0.000000 0.000000 0.000000 0.000000 0.000000 -4.175011 0.607598 13.698559 4.804265 -1.352901 -0.140149 -23.372556 15.116297 57.251538 0.000000 0.000000 0.000000 -2.888733 3.294790 12.186397 -0.001169 -0.752701 1.706196 -5.150146 8.589159 7.598186 0.000000 0.000000 0.000000
23.046887 43.075740 362.416974 2.745986 -3.423010 -13.320404 0.274267 1.211294 13.515332 0.163303 0.355438 0.159115 6.756023 -4.287670 -1.941976 0.000000 0.000000 0.000000 5.439103 -1.819520 9.108797 28.517951 54.997927 -26.557591 -7.507656 -11.507688 13.748299 -16.535950 -26.522619 -11.937034 0.000000 0.000000 0.000000 0.000000 0.000000 0.000000 -23.508999 46.389427 10.456405 97.877197 -70.663205 30.891711 -26.930273 10.616763 17.498703 10.855440 3.311605 2.634217 0.000000 0.000000 0.000000 0.000000 0.000000 0.000000 -3.963362 0.484609 13.115743 4.147981 -0.899492 0.077798 -21.885593 14.630948 55.225507 0.000000 0.000000 0.000000 -2.215261 3.469331 11.423761 -1.212024 -1.924900 2.262975 -2.389128 7.179627 1.814184 0.000000 0.000000 0.000000
22.943261 43.051318 362.426265 2.780201 -3.183464 -13.161242 0.232263 1.187894 13.353651 0.132330 0.340278 0.157048 6.933538 -4.498971 -1.953037 0.000000 0.000000 0.000000 3.155337 -1.428471 7.158538 26.634873 53.197824 -22.220938 -7.797504 -11.451408 13.442167 -15.282401 -25.040653 -10.597316 0.000000 0.000000 0.000000 0.000000 0.000000 0.000000 -26.211382 50.096199 12.903240 129.658479 -71.029679 63.828434 -27.547217 14.041994 17.130478 10.479071 4.797138 1.407958 0.000000 0.000000 0.000000 0.000000 0.000000 0.000000 -3.898671 0.435131 12.956424 3.605841 -0.467347 0.112992 -22.120299 13.012154 52.931846 0.000000 0.000000 0.000000 -1.397654 4.029973 10.788970 -2.470535 -2.892509 2.756454 -0.245530 4.940136 -3.275226 0.000000 0.000000 0.000000
22.930520 43.036333 362.501948 2.948465 -3.018724 -13.324640 0.114494 1.181429 13.522995 0.077509 0.322658 0.156196 6.902443 -4.804064 -1.860639 0.000000 0.000000 0.000000 3.001952 -1.561444 7.063005 26.856672 52.421975 -22.359181 -7.899448 -11.426813 13.321369 -15.119313 -24.494470 -9.940243 0.000000 0.000000 0.000000 0.000000 0.000000 0.000000 -26.479751 50.950540 13.455929 138.418764 -71.052935 77.602698 -25.662330 17.468114 9.290417 10.956804 8.479565 1.098626 0.000000 0.000000 0.000000 0.000000 0.000000 0.000000 -3.991262 0.380616 13.292790 3.116385 -0.187139 -0.023723 -21.631231 11.975542 50.372395 0.000000 0.000000 0.000000 -0.527669 4.892362 10.484208 -3.845650 -3.739438 3.111600 0.589007 3.069974 -3.865618 0.000000 0.000000 0.000000
22.892846 43.041417 362.594286 3.045035 -2.907670 -13.523864 0.055631 1.122047 13.726216 0.058013 0.290241 0.157052 6.779661 -4.701756 -1.870777 0.000000 0.000000 0.000000 2.889186 -1.538012 6.918520 26.116786 52.060752 -21.605956 -7.966318 -11.417764 13.260958 -14.629208 -24.126270 -9.739406 0.000000 0.000000 0.000000 0.000000 0.000000 0.000000 -23.536454 48.361746 11.500577 116.415976 -74.963445 64.664653 -20.199588 19.582795 -5.637330 8.669802 12.953161 6.772634 0.000000 0.000000 0.000000 0.000000 0.000000 0.000000 -4.044269 0.310626 13.553787 2.873417 -0.072031 -0.070864 -20.983965 11.615795 48.716437 0.000000 0.000000 0.000000 -0.903686 4.531161 11.004046 -3.827789 -3.814097 2.900511 2.014852 1.834830 -8.714776 0.000000 0.000000 0.000000
22.824599 43.042025 362.670329 3.106433 -2.795880 -13.691662 0.004660 1.040275 13.896031 0.045798 0.266729 0.156635 6.500530 -4.619443 -1.802594 0.000000 0.000000 0.000000 3.537565 -1.685156 7.359019 26.572558 52.293553 -22.737265 -7.922739 -11.423833 13.300694 -14.957772 -24.357024 -9.842804 0.000000 0.000000 0.000000 0.000000 0.000000 0.000000 -23.356234 48.597033 11.604720 104.189125 -75.543048 56.735048 -14.977370 17.476004 -22.320636 2.375118 13.761986 21.443043 0.000000 0.000000 0.000000 0.000000 0.000000 0.000000 -4.054824 0.282740 13.740989 2.738996 -0.036418 -0.082230 -22.121246 10.020230 45.704490 0.000000 0.000000 0.000000 -0.077772 5.295552 10.676900 -4.481273 -4.122018 3.166180 2.095576 -0.175926 -8.999305 0.000000 0.000000 0.000000
22.769204 43.054961 362.720984 3.167836 -2.715832 -13.827742 -0.024538 0.994216 14.034412 0.042058 0.257439 0.157780 6.130636 -4.434290 -1.762184 0.000000 0.000000 0.000000 4.828212 -1.911712 8.152547 26.488658 53.419128 -24.005182 -7.765965 -11.459578 13.478769 -15.372297 -25.178265 -10.711743 0.000000 0.000000 0.000000 0.000000 0.000000 0.000000 -23.334689 48.759945 11.683141 98.365029 -76.311896 55.670407 -8.287247 30.639360 -49.747046 0.020179 7.769078 40.849160 0.000000 0.000000 0.000000 0.000000 0.000000 0.000000 -4.089804 0.209548 13.891793 2.641684 0.017956 -0.092906 -22.802372 8.145587 39.926904 0.000000 0.000000 0.000000 -0.013888 5.313756 10.731619 -4.459987 -4.251993 3.233953 2.352412 -0.937453 -10.713631 0.000000 0.000000 0.000000
